<mxfile host="app.diagrams.net" modified="2024-04-19T01:15:01.365Z" agent="Mozilla/5.0 (Macintosh; Intel Mac OS X 10_15_7) AppleWebKit/537.36 (KHTML, like Gecko) Chrome/123.0.0.0 Safari/537.36" etag="yJpIMts9hLQ1pHX4wPu1" version="24.2.5" type="github">
  <diagram name="第 1 页" id="pzFxU7AsfxK8ZdI-9ZJr">
    <mxGraphModel dx="1562" dy="740" grid="1" gridSize="10" guides="1" tooltips="1" connect="1" arrows="1" fold="1" page="1" pageScale="1" pageWidth="827" pageHeight="1169" math="0" shadow="0">
      <root>
        <mxCell id="0" />
        <mxCell id="1" parent="0" />
        <mxCell id="7ijjWzLY8lDgmjy5McRl-2" value="Backup&amp;nbsp;&lt;div style=&quot;font-size: 14px;&quot;&gt;Platform&lt;/div&gt;" style="whiteSpace=wrap;html=1;aspect=fixed;fillColor=#f8cecc;strokeColor=#b85450;fontSize=14;fontStyle=1" vertex="1" parent="1">
          <mxGeometry x="570" y="200" width="110" height="110" as="geometry" />
        </mxCell>
        <mxCell id="7ijjWzLY8lDgmjy5McRl-3" value="" style="rounded=0;whiteSpace=wrap;html=1;" vertex="1" parent="1">
          <mxGeometry x="420" y="360" width="270" height="130" as="geometry" />
        </mxCell>
        <mxCell id="7ijjWzLY8lDgmjy5McRl-5" value="File Executor" style="whiteSpace=wrap;html=1;aspect=fixed;fillColor=#fff2cc;strokeColor=#d6b656;" vertex="1" parent="1">
          <mxGeometry x="620" y="420" width="60" height="60" as="geometry" />
        </mxCell>
        <mxCell id="7ijjWzLY8lDgmjy5McRl-6" value="" style="whiteSpace=wrap;html=1;aspect=fixed;" vertex="1" parent="1">
          <mxGeometry x="70" y="220" width="270" height="270" as="geometry" />
        </mxCell>
        <mxCell id="7ijjWzLY8lDgmjy5McRl-7" value="Local Disk" style="rounded=0;whiteSpace=wrap;html=1;" vertex="1" parent="1">
          <mxGeometry x="230" y="430" width="100" height="50" as="geometry" />
        </mxCell>
        <mxCell id="7ijjWzLY8lDgmjy5McRl-4" value="Backup Executor" style="whiteSpace=wrap;html=1;aspect=fixed;fillColor=#fff2cc;strokeColor=#d6b656;" vertex="1" parent="1">
          <mxGeometry x="260" y="300" width="70" height="70" as="geometry" />
        </mxCell>
        <mxCell id="7ijjWzLY8lDgmjy5McRl-8" value="Oracle Server" style="text;html=1;align=center;verticalAlign=middle;whiteSpace=wrap;rounded=0;fontSize=14;fontStyle=1" vertex="1" parent="1">
          <mxGeometry x="70" y="220" width="100" height="30" as="geometry" />
        </mxCell>
        <mxCell id="7ijjWzLY8lDgmjy5McRl-9" value="Oracle" style="shape=cylinder3;whiteSpace=wrap;html=1;boundedLbl=1;backgroundOutline=1;size=15;" vertex="1" parent="1">
          <mxGeometry x="110" y="300" width="60" height="80" as="geometry" />
        </mxCell>
        <mxCell id="7ijjWzLY8lDgmjy5McRl-11" value="" style="endArrow=classic;html=1;rounded=0;exitX=0;exitY=0.5;exitDx=0;exitDy=0;entryX=1;entryY=0.5;entryDx=0;entryDy=0;entryPerimeter=0;" edge="1" parent="1" source="7ijjWzLY8lDgmjy5McRl-4" target="7ijjWzLY8lDgmjy5McRl-9">
          <mxGeometry width="50" height="50" relative="1" as="geometry">
            <mxPoint x="390" y="580" as="sourcePoint" />
            <mxPoint x="440" y="530" as="targetPoint" />
          </mxGeometry>
        </mxCell>
        <mxCell id="7ijjWzLY8lDgmjy5McRl-21" value="2: 执行备份" style="edgeLabel;html=1;align=center;verticalAlign=middle;resizable=0;points=[];" vertex="1" connectable="0" parent="7ijjWzLY8lDgmjy5McRl-11">
          <mxGeometry x="-0.0252" y="-2" relative="1" as="geometry">
            <mxPoint as="offset" />
          </mxGeometry>
        </mxCell>
        <mxCell id="7ijjWzLY8lDgmjy5McRl-12" value="" style="endArrow=classic;html=1;rounded=0;exitX=1;exitY=1;exitDx=0;exitDy=-15;exitPerimeter=0;" edge="1" parent="1" source="7ijjWzLY8lDgmjy5McRl-9" target="7ijjWzLY8lDgmjy5McRl-7">
          <mxGeometry width="50" height="50" relative="1" as="geometry">
            <mxPoint x="390" y="580" as="sourcePoint" />
            <mxPoint x="440" y="530" as="targetPoint" />
          </mxGeometry>
        </mxCell>
        <mxCell id="7ijjWzLY8lDgmjy5McRl-22" value="3: 备份到本地磁盘" style="edgeLabel;html=1;align=center;verticalAlign=middle;resizable=0;points=[];" vertex="1" connectable="0" parent="7ijjWzLY8lDgmjy5McRl-12">
          <mxGeometry x="-0.0251" y="-1" relative="1" as="geometry">
            <mxPoint x="-1" as="offset" />
          </mxGeometry>
        </mxCell>
        <mxCell id="7ijjWzLY8lDgmjy5McRl-13" value="" style="endArrow=classic;html=1;rounded=0;exitX=0;exitY=0.5;exitDx=0;exitDy=0;entryX=1;entryY=0.5;entryDx=0;entryDy=0;" edge="1" parent="1" source="7ijjWzLY8lDgmjy5McRl-2" target="7ijjWzLY8lDgmjy5McRl-4">
          <mxGeometry width="50" height="50" relative="1" as="geometry">
            <mxPoint x="390" y="580" as="sourcePoint" />
            <mxPoint x="440" y="530" as="targetPoint" />
          </mxGeometry>
        </mxCell>
        <mxCell id="7ijjWzLY8lDgmjy5McRl-20" value="1: 通知执行器开始备份" style="edgeLabel;html=1;align=center;verticalAlign=middle;resizable=0;points=[];" vertex="1" connectable="0" parent="7ijjWzLY8lDgmjy5McRl-13">
          <mxGeometry x="-0.1025" y="2" relative="1" as="geometry">
            <mxPoint x="1" as="offset" />
          </mxGeometry>
        </mxCell>
        <mxCell id="7ijjWzLY8lDgmjy5McRl-14" value="File Server" style="text;html=1;align=center;verticalAlign=middle;whiteSpace=wrap;rounded=0;fontSize=14;fontStyle=1" vertex="1" parent="1">
          <mxGeometry x="420" y="360" width="90" height="30" as="geometry" />
        </mxCell>
        <mxCell id="7ijjWzLY8lDgmjy5McRl-15" value="Local Disk" style="rounded=0;whiteSpace=wrap;html=1;" vertex="1" parent="1">
          <mxGeometry x="430" y="430" width="80" height="50" as="geometry" />
        </mxCell>
        <mxCell id="7ijjWzLY8lDgmjy5McRl-16" value="" style="endArrow=classic;html=1;rounded=0;exitX=0.5;exitY=1;exitDx=0;exitDy=0;entryX=0.5;entryY=0;entryDx=0;entryDy=0;" edge="1" parent="1" source="7ijjWzLY8lDgmjy5McRl-2" target="7ijjWzLY8lDgmjy5McRl-5">
          <mxGeometry width="50" height="50" relative="1" as="geometry">
            <mxPoint x="390" y="390" as="sourcePoint" />
            <mxPoint x="440" y="340" as="targetPoint" />
          </mxGeometry>
        </mxCell>
        <mxCell id="7ijjWzLY8lDgmjy5McRl-17" value="4: 通知执行器复制备份文件" style="edgeLabel;html=1;align=center;verticalAlign=middle;resizable=0;points=[];" vertex="1" connectable="0" parent="7ijjWzLY8lDgmjy5McRl-16">
          <mxGeometry x="-0.3367" y="-2" relative="1" as="geometry">
            <mxPoint as="offset" />
          </mxGeometry>
        </mxCell>
        <mxCell id="7ijjWzLY8lDgmjy5McRl-18" value="" style="endArrow=classic;html=1;rounded=0;exitX=0;exitY=0.25;exitDx=0;exitDy=0;entryX=1;entryY=0.656;entryDx=0;entryDy=0;entryPerimeter=0;" edge="1" parent="1" source="7ijjWzLY8lDgmjy5McRl-5" target="7ijjWzLY8lDgmjy5McRl-6">
          <mxGeometry width="50" height="50" relative="1" as="geometry">
            <mxPoint x="390" y="430" as="sourcePoint" />
            <mxPoint x="440" y="380" as="targetPoint" />
          </mxGeometry>
        </mxCell>
        <mxCell id="7ijjWzLY8lDgmjy5McRl-23" value="5:与数据库服务器建立传输通道" style="edgeLabel;html=1;align=center;verticalAlign=middle;resizable=0;points=[];" vertex="1" connectable="0" parent="7ijjWzLY8lDgmjy5McRl-18">
          <mxGeometry x="0.0029" y="-3" relative="1" as="geometry">
            <mxPoint as="offset" />
          </mxGeometry>
        </mxCell>
        <mxCell id="7ijjWzLY8lDgmjy5McRl-19" value="" style="endArrow=classic;html=1;rounded=0;exitX=1;exitY=0.5;exitDx=0;exitDy=0;entryX=0;entryY=0.5;entryDx=0;entryDy=0;" edge="1" parent="1" source="7ijjWzLY8lDgmjy5McRl-7" target="7ijjWzLY8lDgmjy5McRl-15">
          <mxGeometry width="50" height="50" relative="1" as="geometry">
            <mxPoint x="330" y="610" as="sourcePoint" />
            <mxPoint x="380" y="560" as="targetPoint" />
          </mxGeometry>
        </mxCell>
        <mxCell id="7ijjWzLY8lDgmjy5McRl-24" value="6: 传输" style="edgeLabel;html=1;align=center;verticalAlign=middle;resizable=0;points=[];" vertex="1" connectable="0" parent="7ijjWzLY8lDgmjy5McRl-19">
          <mxGeometry x="-0.3474" y="-3" relative="1" as="geometry">
            <mxPoint as="offset" />
          </mxGeometry>
        </mxCell>
      </root>
    </mxGraphModel>
  </diagram>
</mxfile>
